<?xml version="1.0" encoding="utf-8"?>
<!-- Generator: Adobe Illustrator 24.1.2, SVG Export Plug-In . SVG Version: 6.00 Build 0)  -->
<svg version="1.1" xmlns="http://www.w3.org/2000/svg" xmlns:xlink="http://www.w3.org/1999/xlink" x="0px" y="0px"
	 viewBox="0 0 652.25 798.52" style="enable-background:new 0 0 652.25 798.52;" xml:space="preserve">
<style type="text/css">
	.st0{fill:url(#SVGID_1_);}
</style>
<g id="Background">
</g>
<g id="Logo">
	<linearGradient id="SVGID_1_" gradientUnits="userSpaceOnUse" x1="-57.9765" y1="675.0971" x2="459.2832" y2="5.3606">
		<stop  offset="0" style="stop-color:#6420F7"/>
		<stop  offset="1" style="stop-color:#8A20F7"/>
	</linearGradient>
	<path class="st0" d="M647.73,268.45l-60.29-35.95c-10.03-24.94-24.93-41.77-38.25-56.64l-1.5-1.69
		c-31.73-35.47-66.94-52.1-104.79-49.46c-47.73,3.34-95.57,37.75-138.8,99.48c-9.1-3.72-18.25-7.28-27.35-10.8
		C203.78,185.05,134.86,158.28,95.12,49.9L78.85,5.53l-5.68,46.92c-5.72,47.23-6.7,88-4.04,123.6
		c-15.04-17.49-27.72-38.17-38.23-62.72L14.26,74.48l-5.07,41.95c-29.51,244.1,86.52,296.74,188.89,343.2
		c0.07,0.04,0.12,0.05,0.18,0.08c-10.2,38.65-15.8,91.8-21.21,143.38c-2.59,24.64-5.52,52.57-9.21,78.45
		c-4.92,0.79-9.75,1.52-14.47,2.25c-40.32,6.18-69.45,10.63-77.68,30.27c-6.79,16.19,5.68,33.47,9.78,39.14
		c12.69,17.59,31.31,39.78,51.97,39.78c2.44,0,4.9-0.31,7.4-0.98c22.88-6.09,34.47-37.96,43.03-90.78
		c17.98-3.18,36.86-7.25,55.77-13.24c162.56-51.57,193.6-165.46,220.99-265.93c19.2-70.42,36.06-132.2,95.84-161.16
		C577.65,254.34,647.73,268.45,647.73,268.45z M138.98,770.07c-5.36,1.43-17.47-5.71-35.11-30.15c-8.67-12.02-7.56-16.33-7.25-17.08
		c3.3-7.88,34.85-12.72,60.17-16.6c2.41-0.38,4.85-0.74,7.32-1.13C158.03,740.03,150.06,767.11,138.98,770.07z M28.19,158.04
		c12.78,21.29,27.78,39.34,45.25,54.63c19.73,121.51,87.48,173.9,149.21,221.53c13.4,10.33,26.39,20.37,38.47,30.79
		c-17.24-9.5-35.52-17.8-53.66-26.04C113.51,396.31,16.54,352.33,28.19,158.04z M236.76,666.34c-15.16,4.81-30.5,8.32-45.42,11.15
		c2.87-21.4,5.5-45.49,8.29-72.05c5.14-49.03,10.46-99.5,19.6-136.12c63.64,29.72,114.86,61.58,113.71,148.46
		C307.97,637.1,276.71,653.67,236.76,666.34z M355.26,598.26c-5.41-94.58-60.56-137.17-118.75-182.05
		C158.99,356.4,78.99,294.69,91.68,98.32c44.75,84.93,111.78,110.96,176.85,136.24c72.68,28.23,141.34,54.92,179.14,163.39
		c-1.66,6-3.32,12.06-4.97,18.13C425.07,480.72,407.04,546.78,355.26,598.26z M458.14,362.83
		c-32.76-72.86-81.32-106.09-132.73-129.47c37.97-52.83,79.93-83.24,119.07-85.98c30.43-2.17,59.46,11.98,86.27,41.95l1.52,1.69
		c11.35,12.68,23.04,25.73,31.48,43.71C502.56,257.94,476.5,306.5,458.14,362.83z"/>
</g>
</svg>
